<?xml version="1.0" standalone="no"?>
<!DOCTYPE svg PUBLIC "-//W3C//DTD SVG 1.1//EN" "http://www.w3.org/Graphics/SVG/1.1/DTD/svg11.dtd" >
<svg xmlns="http://www.w3.org/2000/svg">
<metadata>Generated by IcoMoon</metadata>
<defs>
<font id="icomoon" horiz-adv-x="1024">
<font-face units-per-em="1024" ascent="960" descent="-64" />
<missing-glyph horiz-adv-x="1024" />
<glyph unicode="&#x20;" horiz-adv-x="512" d="" />
<glyph unicode="&#xe600;" glyph-name="uniE600" d="M1009.708 10.346c0-6.196 0-12.39 0-18.592-0.438-1.316-0.986-2.606-1.302-3.948-5.288-22.85-18.736-38.798-40.506-47.532-4.496-1.812-9.294-2.87-13.948-4.274-6.196 0-12.39 0-18.592 0-0.466 0.35-0.894 0.946-1.4 1.022-15.044 2.52-27.072 10.17-37.75 20.862-94.208 94.394-188.556 188.648-282.794 283.010-1.714 1.714-2.612 4.244-3.886 6.396-2.89-2.38-3.928-3.042-4.976-3.692-78.472-48.782-163.76-67.646-255.21-55.71-90.414 11.798-167.218 51.58-229.686 118.064-55.75 59.334-89.030 129.676-100.254 210.378-1.182 8.508-2.272 17.032-3.408 25.55 0 17.76 0 35.52 0 53.278 0.372 1.326 0.878 2.634 1.094 3.986 3.388 20.738 5.38 41.808 10.31 62.168 36.526 151.008 165.742 266.904 319.314 287.156 8.714 1.146 17.418 2.354 26.122 3.532 17.76 0 35.52 0 53.278 0 8.926-1.182 17.862-2.298 26.784-3.562 82.234-11.708 153.868-45.952 213.144-103.944 80.216-78.468 119.39-174.466 117.068-286.892-1.472-71.218-22.178-136.692-60.444-196.66-5.952-9.328-12.482-18.286-19.21-28.090 2.028-1.714 4.048-3.184 5.792-4.934 93.444-93.398 186.83-186.836 280.304-280.196 9.798-9.788 16.242-21.188 18.978-34.734 0.192-0.924 0.774-1.76 1.172-2.638zM109.098 568.556c-0.010-160.32 129.924-290.652 289.902-290.786 160.692-0.14 291.068 129.736 291.254 290.058 0.182 159.24-127.428 287.946-284.672 291.044-163.45 3.222-296.424-128.538-296.486-290.314zM577.476 529.728c-118.688 0-236.934 0-355.586 0 0 25.714 0 51.208 0 77.16 118.394 0 236.774 0 355.586 0 0-25.544 0-51.048 0-77.16z" />
<glyph unicode="&#xe601;" glyph-name="uniE601" d="M1009.708 9.102c0-5.782 0-11.564 0-17.346-0.466-1.28-1.058-2.53-1.364-3.85-4.982-21.518-17.304-37.198-37.5-46.226-5.74-2.572-12.076-3.82-18.136-5.678-5.37 0-10.738 0-16.106 0-21.818 3.738-36.654 17.98-51.528 32.928-90.46 90.878-181.24 181.436-271.842 272.174-1.692 1.698-2.472 4.332-3.672 6.53-3.14-2.616-4.166-3.304-5.22-3.948-89-54.78-184.8-71.59-286.928-49.99-76.67 16.222-141.972 53.66-195.854 110.414-56.674 59.696-90.64 130.61-101.988 212.23-1.296 9.328-2.384 18.684-3.568 28.028 0 16.106 0 32.216 0 48.322 0.346 1.12 0.924 2.23 1.008 3.37 3.816 53.594 17.562 104.544 43.532 151.554 62.726 113.578 158.368 180.78 286.814 200.764 9.288 1.446 18.642 2.426 27.966 3.624 16.106 0 32.216 0 48.322 0 1.548-0.366 3.082-0.832 4.652-1.084 21.952-3.548 44.362-5.334 65.808-10.868 160.614-41.466 274.036-175.848 287.796-340.784 6.778-81.358-11.068-157.388-52.834-227.6-7.76-13.042-16.63-25.426-25.582-39.020 1.77-1.424 3.856-2.824 5.6-4.564 93.17-93.118 186.288-186.284 279.48-279.376 9.586-9.572 16.432-20.552 19.514-33.8 0.458-1.956 1.084-3.872 1.63-5.802zM690.244 567.912c0.918 157.218-126.278 289.158-286.892 291.14-161.818 1.998-292.788-127.972-294.394-287.506-1.642-163.288 130.092-291.586 286.092-293.93 162.53-2.448 295.642 129.576 295.194 290.296zM438.416 606.868c46.924 0 92.726 0 139.004 0 0-25.906 0-51.372 0-77.316-46.174 0-92.154 0-138.664 0 0-46.428 0-92.384 0-138.89-25.958 0-51.384 0-77.45 0 0 46.010 0 91.962 0 138.61-46.758 0-92.882 0-139.418 0 0 25.978 0 51.27 0 77.424 46.044 0 92.132 0 139.044 0 0 46.976 0 93.098 0 139.524 26.15 0 51.472 0 77.486 0-0.004-46.262-0.004-92.396-0.004-139.356z" />
<glyph unicode="&#xe602;" glyph-name="uniE602" d="M935.256 384.036c0-108.804 0-217.608 0-326.412-1.062-4.864-2.032-9.736-3.198-14.572-14.394-59.476-69.876-102.818-131.808-102.828-190.88-0.038-381.754-0.032-572.634 0.048-7.74 0.004-15.622 0.136-23.194 1.548-55.594 10.35-94.022 41.006-111.612 95.722-1.968 6.118-2.992 12.544-4.458 18.826 0 109.644 0 219.288 0 328.932 0.352 0.73 0.936 1.424 1.034 2.19 8.534 64.358 67.898 113.672 135.38 113.714 189.856 0.12 379.706 0.058 569.562-0.004 7.326 0 14.766-0.080 21.96-1.272 54.974-9.128 93.86-38.386 112.9-91.716 2.778-7.798 4.080-16.11 6.070-24.176zM512.212 41.472c15.13 0 29.98-0.1 44.824 0.184 1.224 0.026 3.068 2.468 3.476 4.080 1.428 5.614 2.358 11.358 3.56 17.456 8.044-5.766 15.424-11.552 23.298-16.546 9.866-6.26 20.668-10.686 32.578-10.010 17.496 0.992 28.158 11.798 35.172 26.722 6.812 14.476 9.364 29.958 9.374 45.874 0.026 48.294 0.058 96.596-0.058 144.89-0.016 5.846-0.424 11.778-1.502 17.514-2.994 15.97-9.332 30.262-23.914 39-15.13 9.068-30.726 6.816-45.816-0.256-7.656-3.592-14.746-8.398-22.864-13.106 0 34.552 0 68.638 0 102.886-19.76 0-38.738 0-58.13 0 0-119.674 0-238.87 0-358.686zM324.022 306.65c0-3.030 0-5.33 0-7.63 0-66.764-0.11-133.526 0.11-200.29 0.036-10.66 1.086-21.376 2.488-31.964 2.238-16.872 11.89-26.702 28.644-29.836 12.576-2.346 24.632 0.216 36.306 4.868 15.298 6.102 28.062 15.518 38.296 29.264 0-10.698 0-21.398 0-32.254 15.894 0 30.94 0 46.252 0 0 89.39 0 178.476 0 267.756-19.398 0-38.396 0-58.204 0 0-2.826 0-5.284 0-7.746 0-34.438-0.084-68.864 0.022-103.302 0.096-30.646 0.488-61.29 0.55-91.938 0.022-11.294-10.634-22.206-20.916-22.014-8.548 0.164-15.298 9.316-15.56 21.182-0.058 2.726 0.036 5.456 0.1 8.188 0.164 7.126 0.504 14.262 0.494 21.388-0.096 56.052-0.252 112.106-0.41 168.154-0.004 2.010-0.242 4.018-0.378 6.16-19.424 0.010-38.238 0.010-57.798 0.010zM850.154 166.57c-1.392 36.668-2.254 72.088-4.264 107.432-1.102 19.25-12.394 32.414-29.418 40.85-14.174 7.026-29.27 8.506-44.77 7.378-33.182-2.422-58.35-23.158-65.798-55.414-2.808-12.182-4.568-24.838-4.842-37.326-0.714-33.15-0.404-66.332-0.404-99.5 0-16.536 2.774-32.59 9.31-47.854 16.3-38.060 55.814-56.014 93.172-42.088 43.422 16.188 52.754 62.246 45.354 91.5-14.372 0-28.698 0-43.26 0 0-9.876 0.11-19.11-0.026-28.336-0.226-15.34-9.956-25.2-25.144-25.606-3.144-0.090-6.302-0.074-9.442 0.12-11.394 0.72-20.202 8.408-22.286 19.582-0.536 2.862-0.614 5.834-0.626 8.76-0.052 19.908-0.026 39.814-0.026 60.5 33.802 0 67.072 0 102.466 0zM335.164 400.206c-62.808 0-125.046 0-187.346 0 0-15.206 0-29.974 0-45.17 19.498 0 38.554 0 58.314 0 0-105.538 0-210.64 0-316.104 19.87 0 39.032 0 58.766 0 0 105.106 0 209.788 0 315.226 23.74 0 46.914 0 70.266 0 0 15.622 0 30.488 0 46.048zM428.624 956.202c-7.678-19.708-15.254-39.456-23.058-59.118-15.938-40.15-32.044-80.226-47.922-120.4-1.266-3.202-1.826-6.89-1.826-10.354-0.11-66.58-0.080-133.164-0.080-199.744 0-2.5 0-5 0-7.962-20.694 0-40.942 0-62.174 0 0 2.442 0 4.864 0 7.284 0 66.58 0.036 133.164-0.1 199.744-0.004 3.844-0.824 7.95-2.31 11.49-25.074 59.732-50.318 119.384-75.516 179.058 22.686 0 45.37 0 68.056 0 0.346-2.032 0.5-4.122 1.060-6.092 7.514-26.182 15.086-52.344 22.638-78.514 4.752-16.484 9.504-32.962 14.656-50.852 1.046 3.392 1.68 5.346 2.248 7.32 6.144 21.336 12.35 42.666 18.394 64.028 6.044 21.346 11.926 42.738 17.88 64.106 22.686 0.004 45.37 0.004 68.056 0.004zM712.818 846.206c17.628 0 34.532 0 51.754 0 0-93.028 0-185.718 0-278.81-21.824 0-43.322 0-65.214 0 0 6.266 0 12.394 0 19.398-3.744-4.778-6.574-9.132-10.124-12.798-20.374-21.078-55.862-14.468-66.496 12.76-3.302 8.448-5.818 17.832-5.902 26.812-0.714 76.614-0.772 153.24-1.014 229.86-0.004 0.81 0.236 1.624 0.414 2.768 17.674 0 35.22 0 53.72 0 0-2.62 0-5.252 0-7.888 0-68.654-0.010-137.308 0.010-205.962 0.004-13.822 6.91-22.648 18.756-24.24 11.038-1.48 21.598 6.102 23.488 17.062 0.53 3.076 0.572 6.264 0.572 9.404 0.032 67.812 0.026 135.632 0.026 203.446 0.004 2.678 0.004 5.356 0.004 8.188zM422.5 705.040c1.198 27.018 1.702 54.086 3.802 81.032 1.722 22.102 9.142 42.214 27.37 56.706 41.846 33.282 107.9 10.202 120.876-42.698 2.92-11.89 3.932-24.48 4.054-36.764 0.384-38.186 0.356-76.4-0.456-114.58-0.274-12.872-1.87-26.12-5.472-38.432-10.832-37.074-39.63-55.422-79.236-51.892-6.25 0.558-12.536 1.338-18.642 2.714-28.86 6.49-42.718 26.876-47.134 54.124-2.804 17.298-3.144 35.030-3.964 52.602-0.578 12.356-0.11 24.76-0.11 37.146-0.368 0.010-0.726 0.026-1.086 0.042zM527.136 707.278c0 13.858 0.004 27.716 0 41.572-0.010 11.546 0.236 23.104-0.116 34.642-0.442 14.456-11.012 25.914-24.218 26.886-12.856 0.946-24.292-8.864-26.902-23.252-0.52-2.866-0.62-5.846-0.62-8.77-0.036-47.034-0.032-94.064-0.012-141.092 0-2.514 0.012-5.058 0.352-7.546 2.368-17.22 17.528-28.256 32.558-23.788 11.070 3.292 18.852 14.404 18.92 27.654 0.126 24.564 0.032 49.13 0.038 73.694zM569.566 182.596c0 25.39 0.478 50.788-0.2 76.158-0.352 13.254 10.744 23.726 25.988 23.802 15.386 0.078 26.056-9.552 26.072-23.656 0.052-50.982 0.058-101.972-0.004-152.956-0.016-14.216-10.472-23.394-26.224-23.326-15.354 0.068-25.584 9.258-25.616 23.184-0.058 25.6-0.016 51.194-0.016 76.794zM748.892 213.144c0 11.568-0.452 22.48 0.106 33.35 0.824 16.154 12.766 25.668 30.61 25.164 14.714-0.414 25.73-11.874 25.83-26.958 0.068-10.424 0.010-20.846 0.010-31.554-19.602 0-37.756 0-56.554 0z" />
<glyph unicode="&#xe603;" glyph-name="uniE603" d="M1020 642.616c-37.382-16.094-77.55-26.972-119.714-31.864 43.030 25.044 76.080 64.692 91.64 111.938-40.27-23.19-84.882-40.028-132.366-49.096-38.022 39.322-92.192 63.894-152.154 63.894-115.106 0-208.446-90.592-208.446-202.344 0-15.846 1.848-31.294 5.396-46.106-173.22 8.438-326.808 88.992-429.62 211.41-17.942-29.886-28.222-64.632-28.222-101.722 0-70.202 36.792-132.13 92.73-168.418-34.168 1.060-66.312 10.148-94.416 25.31-0.016-0.85-0.016-1.694-0.016-2.546 0-98.034 71.85-179.818 167.204-198.404-17.502-4.618-35.908-7.096-54.914-7.096-13.436 0-26.498 1.27-39.224 3.634 26.528-80.38 103.504-138.884 194.72-140.512-71.338-54.278-161.212-86.624-258.874-86.624-16.826 0-33.418 0.962-49.722 2.832 92.244-57.402 201.81-90.902 319.522-90.902 383.402 0 593.070 308.32 593.070 575.692 0 8.77-0.2 17.5-0.604 26.178 40.74 28.528 76.066 64.16 104.010 104.744z" />
<glyph unicode="&#xe604;" glyph-name="uniE604" d="M1019.822-64c-338.612 0-677.216 0-1015.822 0 0 249.692 0 499.384 0 749.074 338.608 0 677.212 0 1015.822 0 0.064-1.992 0.172-3.978 0.172-5.97 0.006-245.708 0.006-491.42 0-737.13 0-1.996-0.114-3.988-0.172-5.974zM86.91 634.836c1.96-2.12 2.948-3.298 4.052-4.36 7.16-6.946 14.448-13.76 21.504-20.804 112.7-112.58 225.288-225.276 338.19-337.654 10.998-10.948 23.518-20.478 35.976-29.802 13.102-9.798 28.028-11.092 42.722-4.136 8.736 4.134 17.28 9.446 24.51 15.81 14.422 12.684 28.104 26.236 41.696 39.822 104.076 104.032 208.058 208.154 312.060 312.26 7.826 7.83 15.596 15.706 23.354 23.604 1.414 1.442 2.618 3.098 4.432 5.266-283.080-0.004-565.008-0.004-848.492-0.004zM92.282-12.188c280.050 0 558.924 0 838.794 0-95.504 96.5-190.28 192.272-285.326 288.312-1.688-1.52-3.202-2.78-4.61-4.154-14.77-14.466-29.438-29.048-44.308-43.418-16.35-15.802-33.63-30.448-54.266-40.498-19.338-9.418-39.238-11.096-58.534-0.768-12.23 6.546-24.23 14.082-34.846 22.96-16.808 14.054-32.414 29.556-48.446 44.53-7.494 7-14.798 14.208-22.374 21.504-95.436-96.234-190.44-192.028-286.084-288.464zM969.042 22.258c0 192.812 0 383.642 0 575.366-96.742-95.952-192.776-191.202-286.946-284.606 95.544-96.814 190.784-193.32 286.944-290.76zM54.542 23.338c96.438 96.956 191.824 192.848 287.39 288.928-95.74 95.344-191.144 190.348-287.39 286.198 0-192.158 0-382.88 0-575.126z" />
<glyph unicode="&#xe605;" glyph-name="uniE605" d="M511.966 952.004c-280.508-0.064-507.906-227.458-507.966-507.972 0.058-280.61 227.46-508.004 507.966-508.034 280.606 0.058 508.004 227.424 508.034 508.034-0.034 280.514-227.432 507.91-508.034 507.972zM69.14 412.218h158.38c2.248-59.034 10.352-111.99 22.844-158.722h-139.27c-23.212 48.712-37.814 102.134-41.954 158.722zM543.746 697.944v183.834c29.89-22.392 94.972-79.406 140.77-183.864l-140.77 0.028zM707.86 634.472c13.614-45.608 22.666-98.6 25.236-158.75h-189.348v158.75h164.114zM465.834 870.556c5.53 4.586 10.23 8.21 14.414 11.314v-183.926h-140.906c16.754 38.198 36.102 70.104 55.338 96.308 26.036 35.344 52 60.334 71.154 76.302zM480.248 634.472v-158.75h-189.23c2.574 60.462 11.876 113.144 25.568 158.75h163.666zM227.52 475.722h-158.378c4.108 56.556 18.68 110.044 41.892 158.75h139.336c-12.498-46.754-20.602-99.742-22.85-158.75zM290.864 412.218h189.384v-158.722h-164.15c-13.594 45.586-22.666 98.534-25.236 158.722zM480.248 189.962v-183.802c-29.844 22.36-94.972 79.34-140.754 183.802h140.754zM558.134 17.424c-5.524-4.586-10.236-8.182-14.39-11.32v183.828h140.89c-16.738-38.166-36.116-70.044-55.374-96.236-25.986-35.288-51.97-60.332-71.13-76.27zM543.746 253.496v158.722h189.202c-2.578-60.43-11.876-113.076-25.556-158.722h-163.644zM796.476 412.218h158.288c-4.092-56.556-18.664-110.010-41.888-158.722h-139.25c12.462 46.73 20.586 99.688 22.85 158.722zM796.476 475.722c-2.264 59.038-10.356 111.996-22.88 158.75h139.312c23.192-48.712 37.83-102.2 41.856-158.75h-158.288zM876.254 697.944h-123.47c-27.962 72.398-64.676 127.37-98.938 166.84 90.942-30.694 168.582-89.758 222.408-166.84zM370.112 864.784c-34.226-39.502-70.972-94.472-98.906-166.84h-123.48c53.89 77.082 131.508 136.146 222.388 166.84zM147.818 189.962h123.418c27.906-72.274 64.584-127.216 98.8-166.688-90.802 30.674-168.36 89.678-222.218 166.688zM653.944 23.276c34.196 39.472 70.88 94.412 98.816 166.688h123.434c-53.89-77.010-131.436-136.014-222.25-166.688z" />
<glyph unicode="&#xe606;" glyph-name="uniE606" d="M1003.298 43.538l-352.266 361.984c53.236 82.328 72.548 186.206 44.096 288.174-52.442 188.226-246.732 298.068-433.958 245.314-187.23-52.718-296.478-248.034-244.026-436.26 52.448-188.246 246.736-298.012 433.974-245.294 41.54 11.706 78.978 30.696 111.882 54.828l348.946-358.572c22.592-23.262 59.66-23.662 82.804-0.932l7.638 7.496c23.124 22.74 23.534 60.004 0.912 83.26zM422.766 359.244c-131.336-36.98-267.602 40.020-304.394 172.022-36.796 132.008 39.844 268.98 171.182 305.966 131.306 36.992 267.562-40.034 304.362-172.036 36.812-132.008-39.824-268.96-171.152-305.952z" />
<glyph unicode="&#xe607;" glyph-name="uniE607" d="M510.904-63.964c-126.964 0-253.912-0.060-380.87 0.010-78.026 0.040-125.974 48.186-125.99 126.49-0.048 184.866-0.064 369.724 0 554.586 0.026 76.84 48.304 125.37 124.838 125.396 255.396 0.068 510.802 0.068 766.182 0 76.562-0.030 124.856-48.538 124.882-125.366 0.068-185.604 0.078-371.214 0-556.826-0.034-75.286-48.73-124.194-123.734-124.268-128.432-0.114-256.87-0.020-385.308-0.020zM511.948 19.956c125.432 0 250.87-0.068 376.312 0.040 34.894 0.034 47.678 12.21 47.702 46.174 0.154 181.846 0.154 363.702 0.024 545.552-0.044 34.414-12.556 46.822-47.048 46.836-250.87 0.094-501.752 0.088-752.634 0-35.64-0.004-47.71-12.368-47.722-48.394-0.050-180.372-0.050-360.714-0.004-541.096 0.016-37.182 11.898-49.052 49.284-49.076 124.684-0.078 249.382-0.034 374.086-0.034zM345.52 239.168c-43.754 0-87.516 0.558-131.252-0.232-24.95-0.45-43.518 8.586-53.71 31.422-10.4 23.326-2.428 43.638 13.872 61.044 26.59 28.4 60.936 43.994 96.848 56.662 28.024 9.89 29.376 14.476 11.072 38.134-20.314 26.26-30.948 55.846-27.080 89.118 6.764 58.152 47.232 92.782 100.254 87.056 54.154-5.846 90.898-51.93 81.63-109.002-3.98-24.46-16.81-48.334-29.418-70.29-11.552-20.116-11.264-24.336 10.188-33.766 27.65-12.164 55.1-25.26 81.022-40.674 12.176-7.226 22.842-19.434 30.276-31.744 21.23-35.13-2.528-76.958-43.552-77.566-46.708-0.692-93.43-0.158-140.148-0.158zM511.096 109.486c-106.178 0-212.368 0-318.55 0.010-5.938 0-13.604-2.192-17.466 0.688-8.574 6.356-20.962 15.202-21.1 23.198-0.144 8.24 11.572 17.724 19.82 24.602 3.57 2.966 11.474 0.822 17.408 0.832 213.852 0.020 427.706 0.020 641.558 0 5.188 0 10.474 0.466 15.558-0.316 14.732-2.22 24.588-11.996 20.914-25.778-2.39-8.98-13.456-16.512-22.12-22.58-4.010-2.808-11.538-0.634-17.486-0.634-106.168-0.020-212.358-0.020-318.532-0.020zM736.178 523.884c-34.86 0-69.742 0.308-104.592-0.124-17.046-0.222-30.192 4.452-30.572 23.706-0.366 18.836 11.996 25.592 29.198 25.592 70.48 0.010 140.96 0 211.428 0.010 16.428 0 28.114-6.998 28.376-24.27 0.292-18.58-11.39-25.33-29.236-25.058-34.85 0.524-69.728 0.142-104.6 0.142zM736.924 385.562c-35.62 0-71.222 0.236-106.836-0.11-16.314-0.148-28.35 5.128-29.072 22.976-0.742 18.782 11.206 26.368 28.46 26.412 70.48 0.178 140.974 0.12 211.448 0.064 17.254-0.010 29.544-7.226 29.058-25.888-0.496-19.038-13.476-23.9-30.67-23.612-34.126 0.554-68.26 0.158-102.386 0.158zM735.524 247.206c-34.864 0-69.718 0.222-104.572-0.104-17.13-0.168-30.014 5.034-29.968 24.302 0.054 18.89 12.912 25.172 29.82 25.186 69.712 0.074 139.412 0.024 209.12 0.034 17.036 0 29.874-6.438 29.982-25.102 0.134-18.94-12.432-24.672-29.844-24.444-34.854 0.456-69.702 0.13-104.538 0.13z" />
<glyph unicode="&#xe608;" glyph-name="uniE608" d="M228.57 444.192c167.4 167.606 337.034 337.448 507.18 507.808 13.224-13.664 27.712-28.64 41.040-42.432-153.236-153.314-306.988-307.158-461.872-462.126 158.006-157.842 312.336-312.016 467.326-466.856-17.734-17.418-32.592-32.020-45.38-44.586-169.826 169.8-339.544 339.476-508.296 508.192z" />
<glyph unicode="&#xe609;" glyph-name="uniE609" d="M486.208 464.428c0 163.134 0 325.224 0 487.654 17.25 0 33.902 0 51.056 0 0-162.344 0-324.442 0-487.31 161.116 0 321.738 0 482.736 0 0-17.43 0-34.078 0-51.306-160.818 0-321.288 0-482.296 0 0-159.39 0-318.208 0-477.466-17.364 0-34.18 0-51.714 0 0 159.2 0 317.992 0 477.296-160.988 0-321.262 0-481.992 0 0 17.174 0 33.836 0 51.132 160.294 0 320.726 0 482.208 0z" />
<glyph unicode="&#xe60a;" glyph-name="uniE60A" d="M514 956c-279.456 0-506-226.544-506-506 0-279.452 226.544-506 506-506 279.452 0 506 226.548 506 506 0 279.456-226.548 506-506 506zM514 38.876c-227.060 0-411.124 184.072-411.124 411.124 0 227.056 184.064 411.124 411.124 411.124 227.064 0 411.124-184.064 411.124-411.124 0-227.064-184.060-411.124-411.124-411.124zM387.5 671.376l379.5-221.376-379.5-221.376v442.752z" />
<glyph unicode="&#xe60b;" glyph-name="uniE60B" d="M512.010 952.028c-280.57 0-508.012-227.436-508.012-508 0-213.544 131.772-396.29 318.438-471.418-3.956 38.288-7.444 102.548 5.706 158.206 9.656 40.866 64.728 274.23 64.728 274.23s-16.036 32.164-16.036 79.634c0 74.586 43.246 130.286 97.052 130.286 45.754 0 67.868-34.364 67.868-75.56 0-46.034-29.288-114.832-44.414-178.582-12.634-53.418 26.774-96.966 79.414-96.966 95.346 0 159.574 122.492 159.574 267.586 0 110.278-74.256 192.856-209.414 192.856-152.61 0-247.766-113.842-247.766-241.026 0-43.822 12.952-74.79 33.212-98.684 9.296-11.008 10.61-15.454 7.25-28.062-2.472-9.28-7.972-31.548-10.298-40.394-3.322-12.752-13.652-17.318-25.192-12.596-70.288 28.712-103.060 105.712-103.060 192.27 0 142.962 120.576 314.342 359.682 314.342 192.158 0 318.61-138.986 318.61-288.284 0-197.422-109.76-344.9-271.548-344.9-54.356 0-105.444 29.374-122.938 62.722 0 0-29.228-115.942-35.398-138.334-15.234-55.282-51.126-110.548-73.056-141.036 49.044-15.772 101.32-24.32 155.602-24.32 280.548 0 507.984 227.436 507.984 508.004-0.004 280.586-227.442 508.022-507.99 508.022z" />
<glyph unicode="&#xe60c;" glyph-name="uniE60C" d="M788.792 443.812c-167.394-167.608-337.030-337.456-507.184-507.812-13.218 13.664-27.708 28.636-41.040 42.432 153.238 153.316 306.99 307.16 461.88 462.13-158.012 157.846-312.344 312.024-467.33 466.858 17.728 17.418 32.586 32.020 45.376 44.582 169.826-169.79 339.544-339.476 508.298-508.19z" />
<glyph unicode="&#xe60d;" glyph-name="uniE60D" d="M516.188 724.792c167.608-167.394 337.456-337.030 507.812-507.184-13.664-13.218-28.636-27.708-42.432-41.040-153.316 153.238-307.16 306.99-462.13 461.88-157.846-158.012-312.024-312.344-466.858-467.33-17.418 17.728-32.020 32.586-44.582 45.376 169.79 169.826 339.476 339.544 508.19 508.298z" />
<glyph unicode="&#xe60e;" glyph-name="uniE60E" d="M507.812 171.208c-167.608 167.394-337.456 337.030-507.812 507.184 13.664 13.218 28.636 27.708 42.432 41.040 153.316-153.238 307.16-306.99 462.13-461.88 157.846 158.012 312.024 312.344 466.858 467.33 17.418-17.728 32.020-32.586 44.582-45.376-169.79-169.826-339.476-339.544-508.19-508.298z" />
<glyph unicode="&#xe60f;" glyph-name="uniE60F" d="M1020 420c-338.838 0-677.376 0-1016 0 0 17.108 0 34.212 0 51.402 338.594 0 677.274 0 1016 0 0-17.078 0-34.242 0-51.402z" />
<glyph unicode="&#xe610;" glyph-name="uniE610" d="M380.762-63.994c0.082 2.984 0.224 5.97 0.224 8.958 0.012 97.97-0.052 195.946 0.024 293.916 0.086 110.616 0.294 221.23 0.45 331.846 0 2.472 0 4.944 0 7.798 69.472 0 138.114 0 208.372 0 0-30.752 0-61.356 0-91.962 0.956-0.368 1.908-0.736 2.858-1.104 1.818 2.202 3.886 4.244 5.41 6.63 16.894 26.388 36.894 49.878 63.036 67.618 39.46 26.79 83.698 35.354 130.482 33.754 39.662-1.358 77.292-10.426 111.73-30.764 47.298-27.942 77.258-69.76 95.538-120.656 15.658-43.572 21.018-88.844 21.058-134.86 0.098-122.576 0.034-245.164 0.024-367.74 0-1.144-0.138-2.288-0.22-3.438-71.304 0-142.61 0-213.916 0-0.076 2.984-0.22 5.97-0.22 8.952-0.012 104.852 0.046 209.706-0.062 314.56-0.018 17.458-0.178 34.946-1.236 52.364-1.496 24.646-5.52 48.874-16.894 71.23-11.8 23.192-30.316 38.366-56.124 42.122-14.366 2.086-29.442 2.15-43.86 0.374-39.212-4.826-67.034-25.664-82-62.772-8.466-20.982-11.794-42.98-11.828-65.382-0.174-117.504-0.082-234.998-0.092-352.502 0-2.984-0.144-5.97-0.224-8.952-70.84 0.006-141.686 0.006-212.53 0.006zM8.134-63.994c0 213.352 0 426.706 0 640.558 71.316 0 142.23 0 213.778 0 0.128-2.266 0.356-4.468 0.356-6.67 0.016-209.46 0.016-418.926 0.006-628.384 0-1.834-0.144-3.674-0.218-5.504-71.312 0-142.616 0-213.922 0zM129.584 891.038c6.394-1.61 12.91-2.842 19.16-4.894 42.778-14.072 65.182-45.198 71.692-88.356 5.532-36.704-2.98-70.040-29.42-97.154-24.082-24.692-54.612-33.106-88.126-30.788-51.938 3.588-89.102 38.298-97.498 89.832-0.246 1.502-0.92 2.928-1.392 4.388 0 10.582 0 21.162 0 31.742 0.472 1.72 1.128 3.416 1.392 5.17 6.446 43.128 36.256 76.1 78.552 86.79 4.618 1.168 9.27 2.178 13.906 3.26 10.576 0.006 21.156 0.006 31.738 0.006z" />
<glyph unicode="&#xe611;" glyph-name="uniE611" d="M4 167.884c0 124.206 0 248.414 0 372.62 95.92 0 191.844 0 287.318 0-32.302-108.028-10.438-201.16 79.728-270.4 78.070-59.952 164.908-64.416 252.474-19.558 52.034 26.65 87.884 69.386 108.474 124.246 20.626 54.956 19.636 110.212-0.43 165.712 96.852 0 192.638 0 288.428 0 0-124.206 0-248.414 0-372.62-0.826-4.764-1.804-9.504-2.456-14.298-14.308-104.832-96.004-191.662-200-212.418-9.762-1.948-19.614-3.452-29.428-5.166-184.076 0-368.154 0-552.23 0-4.764 0.826-9.51 1.804-14.296 2.456-102.084 13.934-188.138 92.502-210.856 192.812-2.742 12.096-4.512 24.406-6.73 36.614zM4 623.606c0 32.168 0 64.336 0 96.506 0.392 1.23 1.022 2.428 1.15 3.686 5.474 52.866 25.724 99.394 60.244 139.7 11.42 13.342 23.98 25.556 39.362 36.748 0-3.848 0-6.428 0-9.008 0-65.438 0.094-130.88-0.144-196.318-0.022-6.284 1.798-7.976 7.852-7.764 12.27 0.43 24.562 0.128 36.85 0.128 3.456 0 6.908 0 10.846 0 0 4.1 0 6.98 0 9.856 0 76.16 0.056 152.322-0.116 228.486-0.010 5.24 1.134 8.25 6.506 9.656 6.238 1.63 12.204 4.318 18.43 5.998 9.99 2.698 20.1 4.942 31.028 7.596 0-44.706 0-87.99 0-131.278 0-43.226 0-86.452 0-129.858 18.794 0 36.536 0 54.954 0 0 3.072 0 5.702 0 8.334 0 76.16 0.006 152.32-0.006 228.48 0 9.154-0.14 18.306-0.218 27.46 172.46 0 344.92 0 517.38 0 4.764-0.826 9.504-1.82 14.302-2.456 104.040-13.878 192.324-96.712 212.318-199.34 1.948-9.99 3.518-20.056 5.26-30.086 0-32.17 0-64.336 0-96.506-112.106 0-224.216-0.022-336.33 0.116-3.016 0-6.858 0.854-8.93 2.792-40.558 37.928-88.206 60.182-143.676 64.438-68.894 5.278-128.764-16.212-179.654-62.746-3.584-3.284-6.93-4.702-11.75-4.698-111.892 0.1-223.772 0.072-335.66 0.072zM807.87 683.7c14.298 0 28.59-0.056 42.886 0.016 16.236 0.078 28.4 12.086 28.472 28.326 0.116 28.366 0.112 56.73 0 85.096-0.068 16.122-12.332 28.526-28.354 28.6-28.582 0.128-57.172 0.134-85.76-0.006-15.202-0.078-27.762-11.746-27.974-26.824-0.408-29.476-0.414-58.97-0.034-88.442 0.196-15.224 12.606-26.644 27.884-26.75 14.292-0.096 28.582-0.016 42.88-0.016zM653.366 457.296c0.626-76.988-62.668-141.128-139.878-141.748-78.712-0.63-142.904 62.914-142.888 141.448 0.012 75.898 62.356 139.544 136.202 141.39 78.378 1.972 145.866-59.15 146.562-141.090z" />
<glyph unicode="&#xe612;" glyph-name="uniE612" d="M913.274 682.594v-106.042h-54.354v106.042h-106.376v56.562h106.376v105.586h54.354v-105.586h106.856v-56.562h-106.856zM515.88 899.802c0 0 96.6-72.288 96.6-174.69s-76.058-160.63-131.55-196.78c-34.952-46.172-41.11-88.346 32.878-134.538 74.012-46.172 143.912-130.504 143.912-190.736 0-134.544-115.118-267.058-355.644-267.058-240.508 0-298.072 122.492-298.072 194.752 0 170.682 248.732 222.902 316.59 222.902 15.206 0 29.722-0.414 43.21-1.040-22.154 23.878-37.050 51.384-37.050 85.344 0 15.626 3.274 32.246 8.55 48.878-7.882-0.432-16.176-0.672-24.994-0.672-137.728 0-242.572 98.392-242.572 220.868 0 122.48 129.51 244.968 328.916 244.968 160.332 0 283.69 0 283.69 0l-84.828-52.208-79.628 0.014zM123.232 160.468c0-138.552 172.686-162.646 248.738-162.646 207.626-4.026 232.288 184.73 115.13 265.042-26.578 18.204-56.37 36.092-83.024 55.914-4.482 0.182-9.012 0.31-13.61 0.31-51.38 0-267.234-20.078-267.234-158.62zM468.522 762.076c-43.214 118.174-122.728 157.608-193.946 132.742-71.218-24.86-107.158-104.564-63.92-222.722 43.21-118.168 122.722-157.616 193.946-132.754 71.212 24.848 107.146 104.564 63.92 222.732z" />
<glyph unicode="&#xe613;" glyph-name="uniE613" d="M239.144 462.392l143.55 1.81 6.692-531.056 192.536 2.426-6.692 531.056 177.382 2.236 47.472 141.64-226.63-2.856-1.052 83.46c-0.482 38.304 6.136 64.288 19.882 77.952 13.726 13.656 41.226 24.23 73.244 24.632 32.528 0.41 58.856-16.626 91.95-35.406l37.346 148.876c-60.586 16.27-110.198 42.762-173.2 41.968-61.408-0.774-112.058-11.22-151.972-31.344-39.898-20.144-62.466-61.37-77.040-92.776-14.56-31.412-13.598-69.394-12.8-132.77l1.096-87.010-143.552-1.81 1.79-141.028z" />
<glyph unicode="&#xe614;" glyph-name="uniE614" d="M4.006 906.336c11.874 11.582 23.79 23.124 35.58 34.794 1.998 1.98 3.442 4.524 5.768 7.646 155.658-155.664 309.908-309.91 464.296-464.302 1.504 1.416 2.908 2.67 4.232 3.996 153.816 153.792 307.62 307.59 461.418 461.396 0.672 0.672 1.268 1.42 1.898 2.134 0.47 0 0.946 0 1.422 0 13.794-13.794 27.594-27.588 41.382-41.382 0-0.476 0-0.952 0-1.428-1.634-1.236-3.448-2.288-4.88-3.728-153.226-153.174-306.426-306.378-459.658-459.546-1.164-1.164-2.764-1.904-4.66-3.174 155.292-155.29 309.57-309.564 465.698-465.692-14.936-14.068-29.26-27.558-43.588-41.048-0.476 0-0.952 0-1.422 0-1.244 1.64-2.308 3.46-3.752 4.9-151.3 151.36-302.626 302.686-453.968 454.010-1.326 1.326-2.752 2.552-4.388 4.068-152.746-152.746-305.32-305.324-457.256-457.262-14.616 14.572-28.35 28.278-42.25 42.15 152.020 152.020 304.464 304.464 457.298 457.298-2.312 2.462-3.996 4.352-5.786 6.136-150.486 150.498-300.974 300.99-451.488 451.448-1.772 1.772-3.924 3.168-5.898 4.746 0.006 0.946 0.006 1.89 0.006 2.848z" />
<glyph unicode="&#xe615;" glyph-name="uniE615" horiz-adv-x="960" d="M880.169 723.167h-196.573c-24.675 155.005-90.797 236.833-191.483 236.833-100.614 0-169.79-81.829-200.452-236.833h-199.967l-91.694-787.167h948.909l-68.74 787.167zM492.112 935.18c107.273 0 149.718-112.075 166.297-212.013h-341.356c20.557 100.044 67.546 212.013 175.059 212.013zM113.799 698.346h743.586l64.474-737.526h-893.985l85.925 737.526z" />
<glyph unicode="&#xe616;" glyph-name="uniE616" d="M561.076 620.9c7.27 70.88-10.304 130.036-74.824 165.778-54.578 30.218-109.584 26.284-160.136-10.388-52.922-38.394-65.228-93.294-58.392-155.39h293.352zM44.512-27.722h739.432c-4.638 41.058-9.15 80.996-13.662 120.918-7.196 63.878-13.898 127.808-21.744 191.606-5.356 43.548-12.504 86.888-18.466 130.378-2.946 21.566-5.45 43.2-7.376 64.872-2.682 30.11-4.302 60.322-7.302 90.392-0.376 3.794-6.186 9.882-9.754 10.080-32.53 1.862-65.12 2.88-97.702 3.382-3.142 0.048-9.126-5.122-9.080-7.766 0.346-15.604-4.722-31.616 10.586-45.316 13.554-12.138 10.524-34.42-2.602-47.094-13.708-13.222-34.744-13.934-49.152-1.652-13.722 11.702-18.438 34.594-5.928 46.77 17.372 16.912 10.802 35.518 10.806 54.424h-297.236c1.514-19.248-5.918-37.714 11.312-54.122 12.728-12.124 8.33-34.856-5.342-46.788-13.902-12.128-33.792-12.146-47.96-0.020-13.736 11.758-18.258 34.618-5.262 46.778 14.050 13.132 11.612 27.886 12.39 43.308 0.474 9.632-3.686 12.118-12.602 12.006-30.054-0.376-60.122-0.698-90.148 0.13-12.11 0.342-14.244-4.832-15.266-15.342-4.394-44.968-9.568-89.876-14.722-134.774-5.788-50.38-12.006-100.704-17.766-151.076-6.186-54.114-11.922-108.27-18.080-162.384-5.592-49.162-11.472-98.308-17.372-148.716zM599.334 620.22h147.14c26.106-228.47 52.088-455.828 78.182-684.22h-820.658c26.094 227.986 52.162 455.608 78.352 684.374h147.070c-5.314 72.146 11.086 135.548 69.384 181.908 36.832 29.28 79.286 43.946 126.274 40.588 55.44-3.962 101.066-28.234 135.954-72.114 34.772-43.716 41.212-94.814 38.298-150.536zM1020 744.962c-123.366 0-246.716 0.164-370.086-0.272-12.294-0.038-17.61 2.888-21.294 15.604-10.234 35.302-30.716 64.83-61.182 92.862h452.56v-108.194zM1015.676 574.972h-206.202c-2.692 21.818-6.816 43.318-7.518 64.914-0.538 16.106-7.504 18.498-21.226 18.212-36.034-0.75-72.086-0.262-108.13-0.244-22.212 0-22.212 0.020-25.776 23.928h368.852v-106.81zM831.784 410.16c-4.044 35.010-8.096 69.966-12.264 106.090h195.876v-106.090h-183.61z" />
<glyph unicode="&#xe617;" glyph-name="uniE617" horiz-adv-x="928" d="M-1.188 728.086h933.623v-80.026h-933.623v80.026zM-1.188 488.012h933.623v-80.026h-933.623v80.026zM-1.188 247.939h933.623v-80.026h-933.623v80.026z" />
<glyph unicode="&#xe618;" glyph-name="uniE618" horiz-adv-x="1113" d="M12.494 904.722l55.998 55.999 951.98-940.787-55.998-55.998-951.98 940.787zM964.467 971.916l55.998-55.999-951.98-940.787-55.999 55.999 951.98 940.787z" />
<glyph unicode="&#xe619;" glyph-name="uniE619" d="M864 960c88.364 0 160-71.634 160-160 0-36.020-11.91-69.258-32-96l-64-64-224 224 64 64c26.742 20.090 59.978 32 96 32zM64 224l-64-288 288 64 592 592-224 224-592-592zM715.578 596.422l-448-448-55.156 55.156 448 448 55.156-55.156z" />
<glyph unicode="&#xe61a;" glyph-name="uniE61A" d="M1024 128v768h-1024v-768h448v-64h-192v-64h512v64h-192v64h448zM128 768h768v-512h-768v512z" />
<glyph unicode="&#xe61b;" glyph-name="uniE61B" d="M896 256v512c0 35.2-28.8 64-64 64h-640c-35.2 0-64-28.8-64-64v-512h-128v-192h1024v192h-128zM640 128h-256v64h256v-64zM832 256h-640v511.886c0.034 0.040 0.076 0.082 0.114 0.114h639.77c0.040-0.034 0.082-0.076 0.116-0.116v-511.884z" />
<glyph unicode="&#xe61c;" glyph-name="uniE61C" d="M736 960h-448c-52.8 0-96-43.2-96-96v-832c0-52.8 43.2-96 96-96h448c52.8 0 96 43.2 96 96v832c0 52.8-43.2 96-96 96zM384 912h256v-32h-256v32zM512 0c-35.346 0-64 28.654-64 64s28.654 64 64 64 64-28.654 64-64-28.654-64-64-64zM768 192h-512v640h512v-640z" />
<glyph unicode="&#xe61d;" glyph-name="uniE61D" d="M768 960h-576c-35.2 0-64-28.798-64-64v-896c0-35.2 28.798-64 64-64h576c35.2 0 64 28.8 64 64v896c0 35.202-28.8 64-64 64zM480-17.782c-27.492 0-49.782 22.29-49.782 49.782s22.29 49.782 49.782 49.782 49.782-22.29 49.782-49.782-22.29-49.782-49.782-49.782zM768 128h-576v704h576v-704z" />
<glyph unicode="&#xe61e;" glyph-name="uniE61E" d="M800 960h-640c-52.8 0-96-43.2-96-96v-832c0-52.8 43.2-96 96-96h640c52.8 0 96 43.2 96 96v832c0 52.8-43.2 96-96 96zM480-32c-17.672 0-32 14.326-32 32s14.328 32 32 32 32-14.326 32-32-14.328-32-32-32zM768 64h-576v768h576v-768z" />
<glyph unicode="&#xe61f;" glyph-name="uniE61F" horiz-adv-x="10240" d="M114.759-28.69v26.483c37.076 3.531 65.324 17.655 82.979 42.372 17.655 22.952 49.434 88.276 95.338 194.207l300.138 704.441h28.248l358.4-815.669c24.717-54.731 42.372-86.51 56.497-100.634 14.124-12.359 38.841-21.186 72.386-26.483v-24.717h-365.462v26.483c42.372 3.531 68.855 8.828 81.214 14.124s17.655 17.655 17.655 38.841c0 7.062-1.766 19.421-7.062 37.076s-10.593 37.076-19.421 56.497l-56.497 137.71h-379.586c-37.076-93.572-60.028-151.834-67.090-171.255-7.062-21.186-10.593-37.076-10.593-49.434 0-24.717 10.593-40.607 30.014-49.434 12.359-5.297 35.31-10.593 68.855-12.359v-28.248h-286.014zM734.455 340.303l-164.193 395.476-165.959-395.476h330.152zM1435.366-2.207c52.966 5.297 86.51 14.124 102.4 28.248s22.952 47.669 22.952 100.634v640.883c0 51.2-7.062 84.745-22.952 100.634s-49.434 24.717-102.4 28.248v26.483h406.069v-26.483c-52.966-3.531-88.276-10.593-105.931-26.483-17.655-14.124-26.483-45.903-26.483-93.572v-690.317c0-15.89 3.531-28.248 8.828-37.076s17.655-14.124 35.31-17.655c10.593-1.766 22.952-1.766 33.545-3.531 12.359 0 33.545 0 67.090 0 127.117 0 213.628 10.593 259.531 31.779 44.138 21.186 88.276 74.152 130.648 160.662h37.076l-70.621-248.938h-775.062v26.483zM2600.607-2.207c52.966 5.297 86.51 14.124 102.4 28.248s22.952 47.669 22.952 100.634v640.883c0 51.2-7.062 84.745-22.952 100.634s-49.434 24.717-102.4 28.248v26.483h406.069v-26.483c-52.966-3.531-88.276-10.593-105.931-26.483-17.655-14.124-26.483-45.903-26.483-93.572v-690.317c0-15.89 3.531-28.248 8.828-37.076s17.655-14.124 35.31-17.655c10.593-1.766 22.952-1.766 33.545-3.531 12.359 0 33.545 0 67.090 0 127.117 0 213.628 10.593 259.531 31.779 44.138 21.186 88.276 74.152 130.648 160.662h37.076l-70.621-248.938h-773.297v26.483zM3843.531 260.855c24.717-65.324 52.966-116.524 84.745-153.6 56.497-67.090 127.117-100.634 211.862-100.634 45.903 0 84.745 14.124 118.29 44.138 33.545 28.248 49.434 68.855 49.434 121.821 0 45.903-17.655 88.276-51.2 121.821-21.186 21.186-68.855 54.731-139.476 98.869l-121.821 75.917c-37.076 22.952-67.090 47.669-88.276 70.621-40.607 45.903-61.793 95.338-61.793 150.069 0 72.386 24.717 132.414 72.386 181.848 47.669 47.669 111.228 72.386 192.441 72.386 33.545 0 72.386-8.828 118.29-24.717s72.386-24.717 79.448-24.717c17.655 0 30.014 3.531 37.076 12.359s12.359 21.186 15.89 35.31h30.014l31.779-305.434h-33.545c-22.952 91.807-61.793 157.131-112.993 192.441-51.2 37.076-102.4 54.731-153.6 54.731-38.841 0-74.152-12.359-102.4-35.31-30.014-22.952-44.138-54.731-44.138-97.103 0-37.076 10.593-68.855 33.545-95.338s56.497-54.731 104.166-82.979l125.352-77.683c79.448-49.434 134.179-93.572 167.724-134.179 31.779-40.607 47.669-90.041 47.669-146.538 0-75.917-28.248-137.71-84.745-188.91s-128.883-75.917-217.159-75.917c-44.138 0-90.041 8.828-139.476 24.717-47.669 17.655-75.917 24.717-82.979 24.717-17.655 0-28.248-5.297-33.545-15.89s-10.593-21.186-12.359-33.545h-31.779l-42.372 305.434h33.545zM4858.703-28.69v26.483c37.076 3.531 65.324 17.655 82.979 42.372 17.655 22.952 49.434 88.276 95.338 194.207l300.138 704.441h28.248l358.4-815.669c24.717-54.731 42.372-86.51 56.497-100.634 14.124-12.359 38.841-21.186 72.386-26.483v-24.717h-365.462v26.483c42.372 3.531 68.855 8.828 81.214 14.124s17.655 17.655 17.655 38.841c0 7.062-1.766 19.421-7.062 37.076s-10.593 37.076-19.421 56.497l-58.262 137.71h-379.586c-37.076-93.572-60.028-151.834-67.090-171.255-7.062-21.186-10.593-37.076-10.593-49.434 0-24.717 10.593-40.607 30.014-49.434 12.359-5.297 35.31-10.593 68.855-12.359v-28.248h-284.248zM5476.634 340.303l-164.193 395.476-165.959-395.476h330.152zM6186.372-2.207c58.262 3.531 97.103 12.359 112.993 26.483 17.655 14.124 26.483 47.669 26.483 102.4v640.883c0 52.966-8.828 86.51-26.483 102.4s-54.731 24.717-112.993 26.483v26.483h425.49v-26.483c-58.262-3.531-97.103-12.359-112.993-26.483-17.655-15.89-26.483-49.434-26.483-102.4v-639.117c0-54.731 8.828-90.041 26.483-102.4 17.655-14.124 54.731-21.186 112.993-26.483v-28.248h-425.49v26.483zM6945.545-2.207c60.028 5.297 97.103 19.421 114.759 40.607s24.717 68.855 24.717 144.772v633.821l-19.421 22.952c-21.186 24.717-38.841 40.607-52.966 45.903s-37.076 8.828-67.090 10.593v26.483h245.407l554.372-686.786v476.69c0 77.683-12.359 128.883-35.31 153.6-15.89 15.89-49.434 24.717-102.4 30.014v26.483h337.214v-26.483c-54.731-5.297-91.807-19.421-109.462-40.607s-28.248-68.855-28.248-144.772v-755.641h-24.717l-635.586 787.421v-559.669c0-77.683 10.593-128.883 33.545-153.6 14.124-15.89 47.669-26.483 100.634-31.779v-26.483h-337.214v26.483zM8282.041 922.924h812.138l7.062-243.641h-33.545c-17.655 75.917-38.841 127.117-63.559 150.069s-81.214 35.31-164.193 35.31h-79.448v-736.221c0-54.731 8.828-90.041 26.483-102.4 17.655-14.124 54.731-21.186 112.993-26.483v-28.248h-418.428v26.483c60.028 5.297 98.869 14.124 112.993 30.014s22.952 54.731 22.952 116.524v718.566h-81.214c-79.448 0-134.179-10.593-162.428-33.545s-51.2-72.386-65.324-150.069h-35.31l8.828 243.641zM9512.607 260.855c24.717-65.324 52.966-116.524 84.745-153.6 56.497-67.090 127.117-100.634 211.862-100.634 45.903 0 84.745 14.124 118.29 44.138 33.545 28.248 49.434 68.855 49.434 121.821 0 45.903-17.655 88.276-51.2 121.821-21.186 21.186-68.855 54.731-139.476 98.869l-121.821 75.917c-37.076 22.952-67.090 47.669-88.276 70.621-40.607 45.903-61.793 95.338-61.793 150.069 0 72.386 24.717 132.414 72.386 181.848 51.2 47.669 114.759 70.621 194.207 70.621 33.545 0 72.386-8.828 118.29-24.717s72.386-24.717 79.448-24.717c17.655 0 30.014 3.531 37.076 12.359s12.359 21.186 15.89 35.31h30.014l31.779-305.434h-33.545c-22.952 91.807-61.793 157.131-112.993 192.441-51.2 37.076-102.4 54.731-153.6 54.731-38.841 0-74.152-12.359-102.4-35.31-30.014-22.952-44.138-54.731-44.138-97.103 0-37.076 10.593-68.855 33.545-95.338s56.497-54.731 104.166-82.979l125.352-77.683c79.448-49.434 134.179-93.572 167.724-134.179 31.779-40.607 47.669-90.041 47.669-146.538 0-75.917-28.248-137.71-84.745-188.91s-128.883-75.917-217.159-75.917c-44.138 0-90.041 8.828-139.476 24.717-47.669 17.655-75.917 24.717-82.979 24.717-17.655 0-28.248-5.297-33.545-15.89s-10.593-21.186-12.359-33.545h-31.779l-42.372 305.434h31.779z" />
<glyph unicode="&#xe620;" glyph-name="uniE620" d="M746.167 732.246l0.99-7.602-11.393-2.359-1.516-16.194h13.646l18.153 1.748 9.371 11.14-9.961 3.875-5.454 6.276-8.192 13.267-3.917 18.764-15.394-3.138-4.317-6.613v-7.455l7.413-5.075zM733.047 726.012l0.821 10.151-9.034 3.896-12.635-2.927-9.371-15.036v-9.75h10.93zM472.967 682.904l-2.78-7.16h-13.457v-6.95h3.201c0 0 0.19-1.474 0.463-3.412l8.255 0.695 5.16 3.201 1.348 6.465 6.676 0.569 2.632 5.433-6.128 1.264-5.37-0.105zM438.283 670.29l-0.526-6.802 9.75 0.821 1.011 6.823-5.854 4.612zM1023.874 453.296c-0.147 14.973-0.906 29.841-2.317 44.477-4.738 48.794-16.405 95.566-33.884 139.411-1.306 3.264-2.506 6.57-3.896 9.792-23.291 55.027-55.996 105.127-96.030 148.362-2.632 2.822-5.307 5.602-7.981 8.339-7.56 7.855-15.331 15.521-23.376 22.87-91.017 82.868-211.897 133.452-344.401 133.452-133.62 0-255.363-51.49-346.633-135.621-21.27-19.606-40.813-41.002-58.544-63.914-66.884-86.511-106.812-194.881-106.812-312.454 0-282.34 229.692-512.011 512.011-512.011 198.588 0 370.999 113.719 455.867 279.412 18.153 35.421 32.284 73.18 41.802 112.751 2.422 10.045 4.507 20.133 6.318 30.346 5.159 29.083 7.981 58.987 7.981 89.501 0.021 1.769-0.084 3.517-0.105 5.286zM927.507 657.928l2.969 3.327c3.896-7.56 7.539-15.247 11.014-23.039l-4.844 0.19-9.14-1.264v20.785zM853.526 747.261l0.084 22.87c8.045-8.529 15.794-17.311 23.207-26.408l-9.224-13.731-32.241 0.295-2.022 6.718 20.196 10.256zM235.904 804.099v0.863h10.256l0.884 3.517h16.784v-7.329l-4.823-6.444h-23.123l0.021 9.392zM252.288 781.25c0 0 10.256 1.748 11.14 1.748s0-10.235 0-10.235l-23.123-1.453-4.401 5.265 16.384 4.675zM960.128 578.009h-37.464l-22.828 16.995-24.028-2.338v-14.657h-7.602l-8.213 5.854-41.613 10.551v26.956l-52.732-4.107-16.342-8.782h-20.933l-10.256 1.032-25.418-14.11v-26.556l-51.953-37.485 4.317-16.005h10.53l-2.759-15.247-7.413-2.717-0.4-39.844 44.898-51.132h19.543l1.179 3.117h35.127l10.129 9.371h19.922l10.93-10.951 29.693-3.075-3.938-39.486 32.958-58.186-17.353-33.168 1.179-15.626 13.667-13.625v-37.569l17.942-24.134v-31.21h15.5c-86.258-105.906-217.541-173.738-364.428-173.738-259.069-0.021-469.85 210.781-469.85 469.871 0 65.22 13.394 127.387 37.506 183.888v14.657l16.805 20.406c5.833 11.014 12.088 21.754 18.764 32.22l0.758-8.529-19.501-23.692c-6.044-11.414-11.688-23.081-16.805-35.063v-26.745l19.522-9.392v-37.169l18.722-31.947 15.226-2.338 1.958 10.951-17.963 27.714-3.517 26.935h10.53l4.443-27.714 25.966-37.885-6.697-12.235 16.51-25.25 41.002-10.151v6.634l16.405-2.338-1.558-11.709 12.888-2.359 19.901-5.433 28.114-32.031 35.906-2.717 3.517-29.293-24.576-17.184-1.158-26.155-3.517-16.005 35.548-44.498 2.717-15.247c0 0 12.888-3.496 14.468-3.496 1.558 0 28.893-20.701 28.893-20.701v-80.425l9.75-2.738-6.634-37.106 16.405-21.88-3.032-36.769 21.67-38.096 27.819-24.302 27.967-0.505 2.738 8.992-20.554 17.311 1.179 8.592 3.685 10.53 0.779 10.74-13.899 0.421-7.013 8.803 11.54 11.098 1.558 8.382-12.888 3.685 0.758 7.792 18.364 2.78 27.924 13.415 9.371 17.184 29.293 37.485-6.655 29.314 8.992 15.605 26.935-0.821 18.132 14.362 5.854 56.565 20.111 25.545 3.517 16.405-18.343 5.875-12.109 19.859-41.381 0.421-32.81 12.509-1.558 23.397-10.951 19.143-29.672 0.442-17.142 26.914-15.226 7.434-0.779-8.213-27.714-1.643-10.151 14.131-28.914 5.875-23.818-27.524-37.485 6.36-2.717 42.245-27.356 4.675 10.972 20.722-3.138 11.898-35.948-24.028-22.618 2.759-8.065 17.669 4.928 18.216 12.467 22.975 28.704 14.531 55.428 0.021-0.147-16.91 19.922-9.266-1.579 28.893 14.362 14.447 28.977 19.037 1.98 13.394 28.893 30.072 30.725 17.016-2.717 2.232 20.806 19.585 7.623-2.022 3.496-4.38 7.897 8.761 1.937 0.863-8.655 1.221-8.782 2.927v8.424l4.654 3.812h10.256l4.696-2.064 4.064-8.213 4.97 0.758v0.716l1.432-0.484 14.404 2.211 2.043 7.034 8.213-2.064v-7.623l-7.623-5.244h0.021l1.116-8.36 26.092-8.045c0 0 0.021-0.105 0.063-0.316l6.002 0.505 0.4 11.309-20.68 9.413-1.179 5.433 17.163 5.854 0.758 16.426-17.942 10.93-1.179 27.693-24.597-12.088h-8.971l2.359 21.080-33.484 7.897-13.857-10.466v-31.926l-24.913-7.897-9.982-20.806-10.824-1.748v26.619l-23.418 3.243-11.709 7.623-4.717 17.247 41.887 24.513 20.491 6.234 2.064-13.773 11.414 0.59 0.884 6.928 11.941 1.706 0.211 2.422-5.138 2.127-1.179 7.329 14.678 1.242 8.866 9.224 0.484 0.674 0.105-0.042 2.696 2.78 30.852 3.896 13.646-11.583-35.779-19.059 45.53-10.74 5.897 15.226h19.901l7.034 13.267-14.067 3.517v16.784l-44.119 19.543-30.451-3.517-17.184-8.992 1.179-21.859-17.963 2.738-2.759 12.088 17.205 15.626-31.231 1.558-8.971-2.717-3.896-10.53 11.709-1.98-2.338-11.709-19.901-1.179-3.117-7.792-28.872-0.8c0 0-0.8 16.384-1.959 16.384s22.639 0.4 22.639 0.4l17.205 16.805-9.392 4.696-12.488-12.13-20.722 1.179-12.488 17.184h-26.556l-27.714-20.701h25.397l2.316-7.434-6.592-6.128 28.114-0.779 4.296-10.15-31.652 1.179-1.537 7.813-19.901 4.296-10.551 5.854-23.692-0.19c77.561 56.502 172.938 89.944 276.022 89.944 118.816 0 227.375-44.414 310.201-117.384l-5.581-9.982-21.67-8.487-9.14-9.919 2.106-11.561 11.182-1.558 6.739-16.847 19.29 7.771 3.18-22.533h-5.812l-15.836 2.338-17.563-2.948-16.995-24.007-24.302-3.812-3.517-20.806 10.256-2.422-2.969-13.373-24.134 4.844-22.133-4.844-4.696-12.32 3.833-25.861 12.993-6.086 21.796 0.126 14.72 1.327 4.486 11.709 22.997 29.883 15.142-3.096 14.91 13.478 2.78-10.53 36.685-24.744-4.486-6.023-16.531 0.884 6.36-9.013 10.172-2.232 11.92 4.97-0.253 14.362 5.286 2.653-4.254 4.507-24.471 13.646-6.444 18.132h20.343l6.507-6.444 17.521-15.099 0.737-18.258 18.153-19.332 6.76 26.492 12.572 6.865 2.359-21.67 12.277-13.478 24.492 0.421c4.738-12.193 8.992-24.597 12.72-37.254l-2.548-2.359zM279.265 727.381l12.299 5.854 11.119-2.653-3.833-14.931-12.004-3.812-7.581 15.542zM344.527 692.233v-9.666h-28.093l-10.53 2.927 2.632 6.739 13.499 5.581h18.448v-5.581h4.043zM357.458 678.755v-9.371l-7.034-4.528-8.761-1.622c0 0 0 14.046 0 15.521h15.794zM349.539 682.567v11.14l9.666-8.803-9.666-2.338zM353.941 660.034v-9.119l-6.718-6.739h-14.931l2.338 10.235 7.055 0.611 1.453 3.517 10.803 1.495zM316.75 678.755h15.521l-19.901-27.819-8.213 4.401 1.769 11.709 10.824 11.709zM380.307 663.235v-9.098h-14.931l-4.085 5.897v8.466h1.179l17.837-5.265zM366.513 675.744l4.254 4.465 7.181-4.465-5.749-4.738-5.686 4.738zM967.751 554.296l1.474 1.727c0.611-2.653 1.264-5.307 1.853-8.002l-3.327 6.276zM79.646 646.556v-14.657c5.117 11.962 10.761 23.628 16.805 35.063l-16.805-20.406z" />
<glyph unicode="&#xe621;" glyph-name="uniE621" horiz-adv-x="1321" d="M1320.553 417.22l-140.234 227.991h-241.259v293.456h-939.062v-851.025h120.834c0-88.037 76.666-172.772 171.325-172.772 94.656 0 171.322 84.734 171.322 172.772h404.816c0-88.037 76.659-172.975 171.319-172.975 94.663 0 171.556 83.188 171.556 178.647 0 16.266-2.338 23.672-6.544 53.019h115.928v270.887zM292.156-55.52c-78.059 0-141.559 64.037-141.559 142.756s63.5 142.756 141.559 142.756c78.056 0 141.556-64.037 141.556-142.756s-63.5-142.756-141.556-142.756zM29.341 263.714v645.606h880.372v-645.606h-880.372zM1039.613-55.52c-78.059 0-141.556 64.037-141.556 142.756 0 30.181 9.303 58.734 25.884 81.575 25.481 37.116 67.947 61.181 115.672 61.181 48.131 0 90.597-24.066 116.078-61.181 16.178-22.841 25.481-51.394 25.481-81.575 0-78.719-63.094-142.756-141.559-142.756zM997.75 410.445v146.728h135.822l93.491-146.728h-229.313z" />
<glyph unicode="&#xe622;" glyph-name="uniE622" d="M517.426 922.382c-273.776 0-495.715-221.939-495.715-495.715s221.939-495.715 495.715-495.715 495.715 221.939 495.715 495.715-221.939 495.715-495.715 495.715zM569.478 141.227c-14.324-14.283-31.661-21.424-52.052-21.424-20.434 0-37.77 7.139-52.099 21.424-14.283 14.328-21.424 31.663-21.424 52.099 0 20.392 7.139 37.729 21.424 52.054 14.324 14.282 31.661 21.466 52.099 21.466 20.392 0 37.729-7.187 52.052-21.466 14.283-14.328 21.466-31.663 21.466-52.054 0-20.433-7.186-37.769-21.466-52.099zM583.941 604.092c-4.672-19.4-13.114-51.199-25.287-95.393-7.365-26.677-12.398-48.818-15.088-66.514-2.696-17.739-7.007-53.357-12.98-106.936h-25.061c-8.219 67.458-13.744 109.091-16.571 124.991-2.829 15.854-8.535 38.085-17.022 66.694-10.777 36.558-17.696 60.946-20.837 73.117-4.806 19-7.186 33.865-7.186 44.643 0 32.293 7.276 55.153 21.871 68.625 14.598 13.474 31.799 20.21 51.649 20.21 19.267 0 36.333-6.691 51.199-19.986 14.865-13.339 22.32-35.303 22.32-65.884 0-9.611-2.334-24.164-7.006-43.565z" />
<glyph unicode="&#xe623;" glyph-name="uniE623" horiz-adv-x="1091" d="M634.88 733.867l153.6 61.44-122.88 143.36-122.88-204.8-122.88 204.8-122.88-143.36 153.6-61.44h-450.56v-819.2h1090.56v819.2h-455.68zM670.72 892.587l71.68-87.040-163.84-66.56 92.16 153.6zM542.72 708.267v0 0 0zM343.040 805.547l71.68 87.040 92.16-153.6-163.84 66.56zM1059.84-54.613h-1029.12v128h1034.24v-128zM1059.84 278.187h-1029.12v430.080h481.28l5.12-5.12-148.48-153.6 20.48-20.48 153.6 163.84 153.6-163.84 20.48 15.36-148.48 158.72 5.12 5.12h491.52v-430.080zM542.72 692.907v0h-5.12z" />
<glyph unicode="&#xe624;" glyph-name="uniE624" d="M512 292.267c-428.8 0-512-204.8-512-204.8v-172.8h1024v172.8c0 0-83.2 204.8-512 204.8zM755.2 695.467c0-134.316-108.884-243.2-243.2-243.2s-243.2 108.884-243.2 243.2c0 134.316 108.884 243.2 243.2 243.2s243.2-108.884 243.2-243.2z" />
<glyph unicode="&#xe625;" glyph-name="uniE625" d="M1024-85.333h-1024v198.4c6.4 6.4 89.6 211.2 512 211.2s505.6-198.4 512-211.2v-198.4zM44.8-40.533h928v134.4c-12.8 25.6-108.8 179.2-467.2 179.2s-454.4-153.6-467.2-179.2l6.4-134.4zM512 426.667c-140.8 0-256 115.2-256 256s115.2 256 256 256 256-115.2 256-256-115.2-256-256-256zM512 893.867c-115.2 0-211.2-96-211.2-211.2s96-211.2 211.2-211.2 211.2 96 211.2 211.2-96 211.2-211.2 211.2z" />
<glyph unicode="&#xe626;" glyph-name="uniE626" horiz-adv-x="1167" d="M1029.12-85.333h-317.44v322.56h-256v-322.56h-317.44v522.24h30.72v-491.52h256v322.56h317.44v-322.56h256v491.52h30.72zM1146.88 421.547l-563.2 481.28-563.2-481.28-20.48 20.48 583.68 496.64 583.68-496.64zM936.96 682.667h-25.6v158.72h-168.96v25.6h194.56z" />
<glyph unicode="&#xe627;" glyph-name="uniE627" horiz-adv-x="1370" d="M0 695.467h1363.2v-198.4h-1363.2v198.4zM1331.2 906.667v-953.6h-1292.8v953.6h1292.8zM1369.6 938.667h-1369.6v-1024h1363.2v1024h6.4zM160 253.867h512v-32h-512v32zM160 164.267h339.2v-32h-339.2v32z" />
<glyph unicode="&#xe628;" glyph-name="uniE628" horiz-adv-x="1321" d="M528.219 414.134l253.345 187.684-253.345 187.686v-144.295h-528.223v-117.383h528.223zM1320.554 417.222l-140.236 227.988h-241.259v293.457h-939.063v-293.457h29.346v264.112h880.372v-645.606h-880.372v264.112h-29.346v-440.186h120.836c0-88.037 76.664-172.771 171.323-172.771s171.322 84.734 171.322 172.771h404.815c0-88.037 76.662-172.974 171.321-172.974 94.661 0 171.557 83.189 171.557 178.648 0 16.263-2.339 23.671-6.545 53.017h115.929v270.889zM292.155-55.52c-78.059 0-141.558 64.036-141.558 142.756s63.499 142.756 141.558 142.756c78.059 0 141.558-64.036 141.558-142.756s-63.499-142.756-141.558-142.756zM1039.613-55.52c-78.059 0-141.558 64.036-141.558 142.756 0 30.182 9.305 58.734 25.885 81.575 25.48 37.116 67.948 61.181 115.672 61.181 48.131 0 90.597-24.066 116.079-61.181 16.177-22.84 25.48-51.393 25.48-81.575 0-78.72-63.096-142.756-141.56-142.756zM997.751 410.444v146.729h135.821l93.491-146.729h-229.312z" />
<glyph unicode="&#xe629;" glyph-name="uniE629" horiz-adv-x="1091" d="M573.44 708.267v0 0 0zM522.24 708.267v0 0 0zM640 733.867l153.6 61.44-122.88 143.36-122.88-204.8-122.88 204.8-122.88-143.36 153.6-61.44h-455.68v-819.2h1090.56v819.2h-450.56zM348.16 805.547l71.68 87.040 92.16-153.6-163.84 66.56zM532.48-59.733h-506.88v358.4h506.88v-358.4zM532.48 324.267h-506.88v384h491.52l-148.48-153.6 20.48-20.48 143.36 148.48v-358.4zM675.84 892.587l71.68-87.040-163.84-66.56 92.16 153.6zM1064.96-59.733h-506.88v358.4h506.88v-358.4zM1064.96 324.267h-506.88v358.4l143.36-148.48 20.48 20.48-148.48 153.6h491.52v-384zM573.44 708.267v0 0zM547.84 733.867v0 0 0zM522.24 708.267v0 0z" />
<glyph unicode="&#xe62a;" glyph-name="uniE62A" horiz-adv-x="1843" d="M1809.067 904.534v-955.733h-1774.933v955.733h1774.933zM1843.2 938.667h-1843.2v-1024h1843.2v1024zM237.437 396.121v-114.367h-42.487v281.619h48.152c23.591 0 41.401-1.63 53.429-4.928 12.145-3.279 22.854-9.468 32.089-18.605 16.18-15.792 24.29-35.736 24.29-59.812 0-25.783-8.653-46.212-25.919-61.287-17.267-15.094-40.547-22.621-69.842-22.621h-19.711zM237.437 435.523h15.87c39.034 0 58.551 15.016 58.551 45.048 0 29.062-20.138 43.593-60.375 43.593h-14.046v-88.641zM506.989 401.766l87.186-120.012h-51.994l-80.435 115.278h-7.644v-115.278h-42.487v281.619h49.782c37.21 0 64.1-6.984 80.629-20.972 18.237-15.559 27.355-36.105 27.355-61.655 0-19.944-5.704-37.075-17.15-51.431s-26.501-23.533-45.242-27.549zM454.103 434.049h13.503c40.237 0 60.375 15.385 60.375 46.154 0 28.829-19.595 43.225-58.745 43.225h-15.132v-89.379zM631.037 423.844c0 39.636 14.512 73.684 43.574 102.144 28.946 28.461 63.712 42.681 104.336 42.681 40.12 0 74.537-14.356 103.25-43.050 28.829-28.693 43.224-63.168 43.224-103.425 0-40.489-14.473-74.848-43.419-103.056-29.062-28.325-64.138-42.487-105.229-42.487-36.357 0-69.027 12.572-97.973 37.754-31.856 27.84-47.764 64.313-47.764 109.439zM673.874 423.379c0-31.099 10.476-56.669 31.39-76.71 20.797-20.060 44.815-30.071 72.054-30.071 29.528 0 54.477 10.205 74.77 30.614 20.293 20.642 30.459 45.805 30.459 75.449 0 30.013-10.011 55.156-30.071 75.449-19.944 20.409-44.66 30.614-74.072 30.614-29.295 0-54.050-10.205-74.227-30.614-20.215-20.177-30.304-45.087-30.304-74.731zM983.973 281.754l59.288 302.785 96.654-218.878 100.146 218.878 53.235-302.785h-43.574l-27.161 169.988-83.384-182.948-80.978 183.142-30.265-170.182h-43.962zM1353.865 423.844c0 39.636 14.512 73.684 43.574 102.144 28.946 28.461 63.712 42.681 104.336 42.681 40.121 0 74.537-14.356 103.25-43.050 28.829-28.693 43.224-63.168 43.224-103.425 0-40.489-14.473-74.848-43.418-103.056-29.062-28.325-64.138-42.487-105.229-42.487-36.357 0-69.027 12.572-97.973 37.754-31.856 27.84-47.764 64.313-47.764 109.439zM1396.702 423.379c0-31.099 10.476-56.669 31.39-76.71 20.797-20.060 44.815-30.071 72.054-30.071 29.528 0 54.477 10.205 74.77 30.614 20.293 20.642 30.459 45.805 30.459 75.449 0 30.013-10.011 55.156-30.071 75.449-19.944 20.409-44.66 30.614-74.072 30.614-29.295 0-54.050-10.205-74.227-30.614-20.216-20.177-30.304-45.087-30.304-74.731z" />
<glyph unicode="&#xe62b;" glyph-name="uniE62B" horiz-adv-x="768" d="M447.556 257.819c0 37.489-27.858 67.879-62.223 67.879s-62.223-30.391-62.223-67.879c0-19.422 7.572-36.821 19.556-49.195v-100.624h85.333v100.622c11.986 12.372 19.556 29.774 19.556 49.196zM682.667 519.758v139.636c-20.754 157.835-144.85 279.273-295.273 279.273s-281.306-121.438-302.060-279.273v-139.636h-85.333v-605.091h768v605.091h-85.333zM387.393 845.576c103.207 0 190.172-79.956 209.94-186.182v-139.636h-426.667v139.636c19.768 106.226 113.52 186.182 216.727 186.182zM682.667 7.758h-597.333v418.909h597.333v-418.909z" />
<glyph unicode="&#xe62c;" glyph-name="uniE62C" horiz-adv-x="857" d="M462.029 248.901c9.83 9.421 15.155 21.709 15.155 35.226 0 27.034-21.709 49.152-48.742 49.152s-48.742-22.118-48.742-49.152c0-13.517 5.325-25.805 15.155-35.226l3.277-3.277v-101.171h60.621v101.171l3.277 3.277zM498.074 284.126c0-17.613-6.554-34.406-18.432-47.104v-113.459h-102.4v113.459c-11.878 12.698-18.432 29.491-18.432 47.104 0 38.502 31.13 70.042 69.632 70.042s69.632-31.539 69.632-70.042zM668.877 562.654v114.688c0 132.71-107.725 240.435-240.435 240.435s-240.435-107.725-240.435-240.435v-114.688h480.87zM835.994-64.443v606.208h-815.104v-606.208h815.104zM856.883 562.654v-647.987h-856.883v647.987h167.117v114.688c0 144.179 117.146 261.325 261.325 261.325s261.325-117.146 261.325-261.325v-114.688h167.117z" />
<glyph unicode="&#xe62d;" glyph-name="uniE62D" horiz-adv-x="1707" d="M0 960h1706.667v-146.286h-1706.667v146.286zM0 521.143h1706.667v-146.286h-1706.667v146.286zM0 82.286h1706.667v-146.286h-1706.667v146.286z" />
<glyph unicode="&#xe62e;" glyph-name="uniE62E" horiz-adv-x="768" d="M384 832c-212.077 0-384-171.923-384-384s171.923-384 384-384 384 171.923 384 384-171.923 384-384 384zM424.322 226.888c-11.097-11.064-24.526-16.595-40.322-16.595-15.83 0-29.259 5.531-40.357 16.595-11.064 11.099-16.595 24.528-16.595 40.357 0 15.796 5.531 29.225 16.595 40.323 11.097 11.063 24.526 16.63 40.357 16.63 15.796 0 29.225-5.567 40.322-16.63 11.064-11.099 16.63-24.528 16.63-40.323 0-15.829-5.566-29.258-16.63-40.357zM435.525 585.44c-3.619-15.029-10.158-39.662-19.587-73.895-5.705-20.665-9.603-37.817-11.689-51.525-2.088-13.742-5.428-41.332-10.055-82.836h-19.413c-6.367 52.255-10.646 84.506-12.837 96.822-2.192 12.281-6.611 29.502-13.187 51.664-8.349 28.319-13.708 47.211-16.142 56.638-3.723 14.717-5.566 26.233-5.566 34.582 0 25.015 5.636 42.723 16.942 53.16 11.308 10.437 24.632 15.656 40.010 15.656 14.925 0 28.145-5.184 39.662-15.482 11.515-10.333 17.29-27.346 17.29-51.037 0-7.445-1.808-18.718-5.427-33.747z" />
<glyph unicode="&#xe630;" glyph-name="uniE630" horiz-adv-x="922" d="M32 369.067l-32-12.8 275.2-441.6 646.4 1004.8-32 19.2-620.8-812.8z" />
<glyph unicode="&#xe631;" glyph-name="uniE631" d="M499.501 925.245c-273.776 0-495.715-221.939-495.715-495.715s221.939-495.715 495.715-495.715 495.715 221.939 495.715 495.715-221.939 495.715-495.715 495.715zM503.543 116.113c-37.702 0-68.264 30.563-68.264 68.264s30.563 68.265 68.264 68.265 68.264-30.565 68.264-68.265c0-37.704-30.563-68.264-68.264-68.264zM675.066 497.637c-17.319-23.98-47.956-50.177-70.9-67.198s-46.772-35.322-58.021-47.754c-13.174-15.542-26.938-37.682-33.154-65.222h-24.868c1.652 55.080 5.734 80.405 10.658 98.968 5.429 20.474 4.886 25.504 29.501 62.565 0 0 56.2 64.279 60.491 97.137 3.026 23.165 6.512 57.7-13.617 81.975-18.533 22.349-44.85 31.661-85.253 30.921-46.174-0.845-70.455-26.574-75.782-48.923-2.599-10.907-5.384-28.322-8.371-39.644-5.218-28.227-29.86-45.21-59.6-45.21-33.532 0-60.717 10.067-60.717 65.146h0.329l-0.047-4.248c10.938 53.286 36.487 90.502 76.658 116.065 32.591 20.99 72.647 30.387 120.163 30.387 62.423 0 114.287-15.469 155.591-45.302 41.293-29.833 61.943-74.311 61.943-132.871 0-35.913-8.574-58.823-25.004-86.795z" />
<glyph unicode="&#xe632;" glyph-name="uniE632" horiz-adv-x="981" d="M522.234 218.59h-22.72c7.197 116.53 18.222 351.84-4.051 423.828-21.37 69.062-134.076 80.535-185.593 82.11v-104.157c24.521-6.073 42.743-28.12 42.743-54.44v-89.984c0-26.545-18.222-48.591-42.743-54.44v-103.033c0-18.672-15.297-33.744-33.744-33.744-18.671 0-33.744 15.072-33.744 33.744v102.132c-26.77 4.274-47.241 27.446-47.241 55.341v89.984c0 27.67 20.247 50.616 46.792 55.116v103.707h-6.074c-40.943 0-176.369-5.849-199.991-82.335-29.919-96.734 0-486.816 0.45-490.64 0.225-1.8 18.222-189.867 170.521-214.839l118.554 0.225c79.637 13.499 122.155 71.538 144.875 123.954h24.296c-23.846-59.839-71.538-130.702-166.472-146.225l-0.899-0.225h-122.154c-171.646 27.895-190.992 233.059-191.217 235.31-1.125 16.197-30.82 398.405 0.45 499.189 27.445 88.41 164.221 98.083 221.586 98.083 9.224 0 14.848-0.225 14.848-0.225h13.722v-147.349h-13.048c-19.572-0.899-33.744-15.748-33.744-33.744v-89.984c0-18.672 15.297-33.744 33.744-33.744h13.048v-17.097h0.449v-106.631c0-6.3 4.95-11.248 11.248-11.248 6.074 0 11.248 4.949 11.248 11.248v123.729h8.999c18.672 0 33.744 15.072 33.744 33.744v89.984c0 18.447-15.072 33.744-33.744 33.744h-8.999v147.574h8.1c57.365 0 194.142-9.673 221.586-98.083 23.395-76.037 12.373-312.246 5.174-430.576zM978.456 818.786c-44.767-52.64-80.311-77.387-123.954-77.387-57.14 0-128.003 42.518-250.607 120.13-80.311 50.841-149.149 66.364-204.264 46.117-69.288-25.421-102.133-101.683-115.63-144.875-1.8-5.849-8.098-9.223-14.173-7.199-5.849 1.8-9.224 8.098-7.424 13.947 14.848 47.243 51.292 130.477 129.353 159.048 62.315 22.946 137.676 6.749 224.287-48.142 222.262-140.601 255.781-152.298 345.315-47.241 4.049 4.725 11.023 5.399 15.747 1.35s5.399-11.023 1.35-15.748zM587.473-28.642v112.255h-337.442v112.481h337.442v126.878l255.33-165.796z" />
<glyph unicode="&#xea16;" glyph-name="uniEA16" d="M512 960c-282.77 0-512-229.23-512-512s229.23-512 512-512 512 229.23 512 512-229.23 512-512 512zM512 32c-229.75 0-416 186.25-416 416s186.25 416 416 416 416-186.25 416-416-186.25-416-416-416zM320 640h128v-384h-128zM576 640h128v-384h-128z" />
<glyph unicode="&#xea17;" glyph-name="uniEA17" d="M512 960c-282.77 0-512-229.23-512-512s229.23-512 512-512 512 229.23 512 512-229.23 512-512 512zM512 32c-229.75 0-416 186.25-416 416s186.25 416 416 416 416-186.25 416-416-186.25-416-416-416zM320 640h384v-384h-384z" />
<glyph unicode="&#xea18;" glyph-name="uniEA18" d="M512 960c-282.77 0-512-229.23-512-512s229.23-512 512-512 512 229.23 512 512-229.23 512-512 512zM512 32c-229.75 0-416 186.25-416 416s186.25 416 416 416 416-186.25 416-416-186.25-416-416-416zM448 448l256 192v-384zM320 640h128v-384h-128v384z" />
<glyph unicode="&#xea19;" glyph-name="uniEA19" d="M512 960c282.77 0 512-229.23 512-512s-229.23-512-512-512-512 229.23-512 512 229.23 512 512 512zM512 32c229.75 0 416 186.25 416 416s-186.25 416-416 416-416-186.25-416-416 186.25-416 416-416zM576 448l-256 192v-384zM704 640h-128v-384h128v384z" />
<glyph unicode="&#xea1a;" glyph-name="uniEA1A" d="M512-64c282.77 0 512 229.23 512 512s-229.23 512-512 512-512-229.23-512-512 229.23-512 512-512zM512 864c229.75 0 416-186.25 416-416s-186.25-416-416-416-416 186.25-416 416 186.25 416 416 416zM704 288l-224 160 224 160zM448 288l-224 160 224 160z" />
<glyph unicode="&#xea1b;" glyph-name="uniEA1B" d="M512 960c-282.77 0-512-229.23-512-512s229.23-512 512-512 512 229.23 512 512-229.23 512-512 512zM512 32c-229.75 0-416 186.25-416 416s186.25 416 416 416 416-186.25 416-416-186.25-416-416-416zM320 608l224-160-224-160zM576 608l224-160-224-160z" />
<glyph unicode="&#xeac4;" glyph-name="uniEAC4" d="M891.96 445.796c-18.086 0-35.348-3.52-51.064-9.856-10.506 114.358-110.29 204.060-232 204.060-29.786 0-58.682-5.63-84.318-15.164-9.96-3.702-12.578-7.52-12.578-14.916v-402.714c0-7.766 6.24-14.234 14.124-14.996 0.336-0.034 363.536-0.21 365.89-0.21 72.904 0 131.986 56.816 131.986 126.894s-59.134 126.902-132.040 126.902zM400 192h32l16 224.22-16 223.78h-32l-16-223.78zM304 192h-32l-16 162.75 16 157.25h32l16-160zM144 192h32l16 128-16 128h-32l-16-128zM16 256h32l16 64-16 64h-32l-16-64z" />
</font>
</defs>
</svg>
